<svg width="32" height="32" viewBox="0 0 32 32" fill="none" xmlns="http://www.w3.org/2000/svg">
<circle cx="16" cy="16" r="16" fill="white"/>
<g clip-path="url(#clip0_1_11)">
<path fill-rule="evenodd" clip-rule="evenodd" d="M12.0372 7.90088C14.5515 10.6894 14.9088 13.2225 12.0372 16.6323C10.2295 17.6501 9.12855 18.0759 6.41434 17.5923C6.41434 17.5923 6.93651 24.4833 6.41434 24.678C5.89217 24.8727 4.9442 24.8588 4.76863 24.678C4.59306 24.4973 4.11323 6.76408 4.76863 6.57516C5.42403 6.38624 9.99284 5.96785 12.0372 7.90088ZM12.0372 12.2436C11.0294 8.6833 6.71907 8.02945 6.41434 8.59429C6.10961 9.15912 6.07998 13.9174 6.90284 14.6743C7.72569 15.4311 11.5801 15.398 12.0372 12.2436Z" fill="black"/>
<path fill-rule="evenodd" clip-rule="evenodd" d="M15.5428 24.9924C15.5428 24.9924 15.1314 7.75811 15.5428 6.88954C15.9543 6.02097 17.4171 6.88954 17.4171 6.88954C17.4171 6.88954 20.0228 11.0953 20.4343 11.4153C20.8457 11.7353 24 7.98668 25.3257 6.88954C26.6514 5.79239 27.3371 6.88954 27.3371 6.88954V24.9924C26.6086 25.3914 26.1775 25.4564 25.3257 24.9924V15.7124L17.4171 23.941V24.9924C16.7403 25.3229 16.3453 25.4155 15.5428 24.9924ZM17.4171 20.8781C16.8228 20.5124 16.5486 11.141 17.4171 10.8667C18.2857 10.5924 21.5771 16.0324 21.5771 16.6724C21.5771 17.3124 18.0114 21.2438 17.4171 20.8781ZM22.8571 14.9353C22.4 14.6153 21.5771 13.7924 21.5771 13.2438C21.5771 12.6953 25.0514 9.14286 25.3257 9.55429C25.6 9.96572 25.6 11.6895 25.3257 12.4667C25.0514 13.2438 23.3143 15.2553 22.8571 14.9353Z" fill="black"/>
</g>
<defs>
<clipPath id="clip0_1_11">
<rect width="23.1771" height="19.1524" fill="white" transform="translate(4.43427 6.40192)"/>
</clipPath>
</defs>
</svg>
